C:\Users\r0593348\3dpredictsim\Results\Batchsim_tmt_linear\Pog_s1_tmt_aCst_d05_k250_ig24_pas_GRF.mot
nRows=15
nColumns=19

name C:\Users\r0593348\3dpredictsim\Results\Batchsim_tmt_linear\Pog_s1_tmt_aCst_d05_k250_ig24_pas_GRF.mot
datacolumns 19
datarows 15
range 0.0000000000 0.1568816507
endheader
time 	ground_force_vx	ground_force_vy	ground_force_vz	ground_force_px	ground_force_py	ground_force_pz	1_ground_force_vx	1_ground_force_vy	1_ground_force_vz	1_ground_force_px	1_ground_force_py	1_ground_force_pz	ground_torque_x	ground_torque_y	ground_torque_z	1_ground_torque_x	1_ground_torque_y	1_ground_torque_z
        0.0000000000	      -95.3692778774	       94.8385684301	       51.2785368285	        0.1657484880	        0.0000000000	        0.0365695523	       88.1892821406	      416.1090629106	       -6.1148849547	       -0.3291523725	        0.0000000000	       -0.0308900035	        0.0000000000	        0.0000000000	        0.0000000000	        0.0000000000	        0.0000000000	        0.0000000000	
        0.0112058322	      -93.0678432935	      204.0467875114	       80.6234276690	        0.1715412573	        0.0000000000	        0.0344137416	       67.9373654385	      329.6542896172	      -12.8733698685	       -0.3235587026	        0.0000000000	       -0.0290909540	        0.0000000000	        0.0000000000	        0.0000000000	        0.0000000000	        0.0000000000	        0.0000000000	
        0.0224116644	      -51.3218038541	      384.1515271329	       17.9078674310	        0.1758502080	        0.0000000000	        0.0326954519	       37.6571356650	      222.0694484482	       -9.3935741020	       -0.3121649278	        0.0000000000	       -0.0241214121	        0.0000000000	        0.0000000000	        0.0000000000	        0.0000000000	        0.0000000000	        0.0000000000	
        0.0336174966	      -66.5864446199	      597.2391215211	       -4.5884816473	        0.1829927531	        0.0000000000	        0.0342305040	       17.2458370573	      146.9320485937	       -9.2979549168	       -0.2953062408	        0.0000000000	       -0.0154690053	        0.0000000000	        0.0000000000	        0.0000000000	        0.0000000000	        0.0000000000	        0.0000000000	
        0.0448233288	     -100.6143065699	      786.8227093890	      -12.4559956183	        0.1907558201	        0.0000000000	        0.0364543196	        2.6164292329	      119.0879272656	      -11.4725177923	       -0.2943436344	        0.0000000000	       -0.0148605449	        0.0000000000	        0.0000000000	        0.0000000000	        0.0000000000	        0.0000000000	        0.0000000000	
        0.0560291610	     -119.4930706420	      880.0610053076	      -14.5812534124	        0.1957445586	        0.0000000000	        0.0377687912	       -1.8369957280	       78.5192071308	      -10.3611252726	       -0.2938770629	        0.0000000000	       -0.0148974997	        0.0000000000	        0.0000000000	        0.0000000000	        0.0000000000	        0.0000000000	        0.0000000000	
        0.0672349932	     -120.3562545501	      894.9922135037	      -14.8384823773	        0.1992096464	        0.0000000000	        0.0385069592	       -7.2486576737	       32.5340679413	       -6.1269798214	       -0.2939660514	        0.0000000000	       -0.0148523779	        0.0000000000	        0.0000000000	        0.0000000000	        0.0000000000	        0.0000000000	        0.0000000000	
        0.0784408254	     -111.8343207478	      873.2920865751	      -14.7482944504	        0.2022581345	        0.0000000000	        0.0388875548	        0.0474233407	       -0.0469464009	        0.0010331237	        0.0000000000	        0.0000000000	        0.0000000000	        0.0000000000	        0.0000000000	        0.0000000000	        0.0000000000	        0.0000000000	        0.0000000000	
        0.0896466576	      -99.0154786001	      835.8136416082	      -15.2108693822	        0.2054831960	        0.0000000000	        0.0390247155	        0.0000148279	       -0.0000119646	       -0.0000009544	        0.0000000000	        0.0000000000	        0.0000000000	        0.0000000000	        0.0000000000	        0.0000000000	        0.0000000000	        0.0000000000	        0.0000000000	
        0.1008524898	      -85.3413095222	      790.3447918553	      -15.0476752519	        0.2088221363	        0.0000000000	        0.0390648727	        0.0000158284	       -0.0000112633	       -0.0000012283	        0.0000000000	        0.0000000000	        0.0000000000	        0.0000000000	        0.0000000000	        0.0000000000	        0.0000000000	        0.0000000000	        0.0000000000	
        0.1120583220	      -73.8854257010	      749.8149862976	      -15.0460042704	        0.2128139609	        0.0000000000	        0.0389837688	        0.0002644330	       -0.0001690129	       -0.0000226467	        0.0000000000	        0.0000000000	        0.0000000000	        0.0000000000	        0.0000000000	        0.0000000000	        0.0000000000	        0.0000000000	        0.0000000000	
        0.1232641542	      -63.5229949273	      714.7325172468	      -15.2291054459	        0.2171161472	        0.0000000000	        0.0388346013	        0.0041959020	       -0.0024617003	       -0.0003788116	        0.0000000000	        0.0000000000	        0.0000000000	        0.0000000000	        0.0000000000	        0.0000000000	        0.0000000000	        0.0000000000	        0.0000000000	
        0.1344699864	      -53.4591311266	      682.5392376620	      -15.8407697830	        0.2213246188	        0.0000000000	        0.0387171523	       -0.0204568600	        0.0111852096	        0.0019181394	        0.0000000000	        0.0000000000	        0.0000000000	        0.0000000000	        0.0000000000	        0.0000000000	        0.0000000000	        0.0000000000	        0.0000000000	
        0.1456758185	      -44.2181886193	      654.0897611675	      -16.7630967237	        0.2255385324	        0.0000000000	        0.0386519301	       -0.0138222381	        0.0071144464	        0.0013447381	        0.0000000000	        0.0000000000	        0.0000000000	        0.0000000000	        0.0000000000	        0.0000000000	        0.0000000000	        0.0000000000	        0.0000000000	
        0.1568816507	      -36.7022972549	      630.4626807220	      -17.6531979049	        0.2299140494	        0.0000000000	        0.0386241192	       -0.0096051370	        0.0046958679	        0.0009691306	        0.0000000000	        0.0000000000	        0.0000000000	        0.0000000000	        0.0000000000	        0.0000000000	        0.0000000000	        0.0000000000	        0.0000000000	
